<?xml version="1.0" encoding="UTF-8"?>
<svg id="_Слой_1" data-name="Слой 1" xmlns="http://www.w3.org/2000/svg" viewBox="0 0 655.16 129.71">
  <defs>
    <style>
      .cls-1, .cls-2 {
        fill: #fff;
      }

      .cls-2 {
        font-family: Bauhaus93, 'Bauhaus 93';
        font-size: 117.09px;
      }
    </style>
  </defs>
  <text class="cls-2" transform="translate(0 108.32)"><tspan x="0" y="0" xml:space="preserve">THE       MEAL</tspan></text>
  <path class="cls-1" d="m380.04,101.56c0,3.71-3.31,6.75-7.36,6.75h-164.02c-4.05,0-7.36-3.04-7.36-6.75s3.31-6.75,7.36-6.75h164.02c4.05,0,7.36,3.04,7.36,6.75Zm-80.79-84.87c-.23-4.56-3.97-8.19-8.59-8.19s-8.32,3.61-8.58,8.15c2.76-.33,5.56-.53,8.4-.53s5.89.21,8.77.57Zm66.83,72.14h-150.83c3.05-39,35.63-69.7,75.41-69.7s72.37,30.7,75.41,69.7Zm-84.04-63.08s-42.29,9.23-54.9,56.03h15.98s8.85-39.04,38.92-56.03Z"/>
</svg>