<?xml version="1.0" encoding="UTF-8"?>
<svg id="_Слой_1" data-name="Слой 1" xmlns="http://www.w3.org/2000/svg" viewBox="0 0 655.16 129.71">
  <g>
    <path d="m41.79,52.69v55.63h-23.21v-55.63H.8v-22.41h58.71v22.41h-17.72Z"/>
    <path d="m97.76,58.18v20.58h-6.46v29.56h-23.21V30.28h23.21v27.9h6.46Zm27.16-27.9v78.04h-23.21V30.28h23.21Z"/>
    <path d="m182.15,60.64v17.38h-15.15c-2.06,0-3.52.31-4.37.91-.86.61-1.29,1.64-1.29,3.09,0,1.64.44,2.71,1.31,3.23.88.51,2.67.77,5.37.77h15.61v22.3h-18.24c-8.58,0-15.13-2.05-19.67-6.15-4.54-4.1-6.8-10.01-6.8-17.75v-30.59c0-7.47,2.14-13.26,6.43-17.38,4.29-4.12,10.32-6.17,18.09-6.17h20.18v22.41h-14.81c-4,0-6,1.3-6,3.89,0,1.52.48,2.58,1.43,3.17.95.59,2.65.89,5.09.89h12.81Z"/>
    <path d="m400.25,108.32v-56.26c0-6.97,2.12-12.67,6.35-17.09,4.23-4.42,9.72-6.63,16.47-6.63,8,0,14.16,3.68,18.47,11.03,2.63-3.96,5.45-6.79,8.46-8.49,3.01-1.7,6.73-2.54,11.15-2.54,7.01,0,12.39,2.21,16.12,6.63,3.74,4.42,5.6,10.79,5.6,19.09v54.25h-23.21v-50.77c0-2.52-.2-4.18-.6-5-.4-.82-1.21-1.23-2.43-1.23-2.29,0-3.43,1.94-3.43,5.83v51.17h-23.21v-50.77c0-2.48-.21-4.13-.63-4.97-.42-.84-1.24-1.26-2.46-1.26-2.29,0-3.43,2.08-3.43,6.23v50.77h-23.21Z"/>
    <path d="m538.55,60.64v17.38h-15.15c-2.06,0-3.52.31-4.37.91-.86.61-1.29,1.64-1.29,3.09,0,1.64.44,2.71,1.31,3.23s2.67.77,5.37.77h15.61v22.3h-18.24c-8.58,0-15.13-2.05-19.67-6.15-4.54-4.1-6.8-10.01-6.8-17.75v-30.59c0-7.47,2.14-13.26,6.43-17.38s10.32-6.17,18.09-6.17h20.18v22.41h-14.81c-4,0-6,1.3-6,3.89,0,1.52.48,2.58,1.43,3.17.95.59,2.65.89,5.09.89h12.81Z"/>
    <path d="m581.65,69.16v20.58h-6.69v18.58h-23.21v-49.62c0-9.6,2.62-17.07,7.86-22.38,5.24-5.32,12.61-7.98,22.1-7.98s15.91,2.41,20.3,7.23c4.38,4.82,6.58,12.26,6.58,22.33v50.42h-23.21v-48.88c0-3.05-.36-5.16-1.09-6.35-.72-1.18-2.02-1.77-3.89-1.77-3.62,0-5.43,2.71-5.43,8.12v9.72h6.69Z"/>
    <path d="m621.04,30.28h23.21v46.37c0,3.62.58,6.03,1.74,7.23,1.16,1.2,3.46,1.8,6.89,1.8h1.2v22.64h-6.17c-8.46,0-15.06-2.47-19.78-7.4-4.73-4.94-7.09-11.79-7.09-20.55V30.28Z"/>
  </g>
  <path d="m380.04,101.56c0,3.71-3.31,6.75-7.36,6.75h-164.02c-4.05,0-7.36-3.04-7.36-6.75s3.31-6.75,7.36-6.75h164.02c4.05,0,7.36,3.04,7.36,6.75Zm-80.79-84.87c-.23-4.56-3.97-8.19-8.59-8.19s-8.32,3.61-8.58,8.15c2.76-.33,5.56-.53,8.4-.53s5.89.21,8.77.57Zm66.83,72.14h-150.83c3.05-39,35.63-69.7,75.41-69.7s72.37,30.7,75.41,69.7Zm-84.04-63.08s-42.29,9.23-54.9,56.03h15.98s8.85-39.04,38.92-56.03Z"/>
</svg>